# xmcd CD database file
#
# Track frame offsets:
#	150
#	10820
#	19501
#	30197
#	44829
#	57511
#	69780
#	81635
#	92696
#	102926
#	114314
#	125082
#	134693
#	146872
#	158175
#	170223
#	180694
#	189584
#	202262
#	215029
#	228370
#	238061
#	246978
#	257368
#	267639
#	277658
#	288660
#	301625
#	313825
#	325289
#
# Disc length: 4491 seconds
#
# Revision: 0
# Processed by: cddbd v1.5.2PL0 Copyright (c) Steve Scherf et al.
# Submitted via: CDex 1.70beta2
#
DISCID=c811891e
DTITLE=Dolly Parton and Porter Wagoner - Just betrween you and me CD 1
DYEAR=2014
DGENRE=Country
TTITLE0=Just between you and me
TTITLE1=Before I met you
TTITLE2=Two sides to every story
TTITLE3=Mommie, ain't that daddy
TTITLE4=Four o thirty three
TTITLE5=Love is worth living
TTITLE6=The last thing on my mind
TTITLE7=Sorrow's tearing down the house (that happiness once built)
TTITLE8=Home is where the hurt is
TTITLE9=This time has gotta be our last time
TTITLE10=Put it off until tomorrow
TTITLE11=Because one of us was wrong
TTITLE12=Slip away today
TTITLE13=Holding on to nothin' 
TTITLE14=Just the two of us
TTITLE15=Closer by the hour
TTITLE16=Afraid to love again
TTITLE17=I washed my face in the morning dew
TTITLE18=Jeannie's afraid of the dark
TTITLE19=The party
TTITLE20=I can
TTITLE21=We'll get ahead someday
TTITLE22=The dark end of the street
TTITLE23=Somewhere between
TTITLE24=Making plans
TTITLE25=Malena
TTITLE26=God as gold
TTITLE27=One by one
TTITLE28=God as gold
TTITLE29=Yours love
EXTD=YEAR: 2014
EXTT0=
EXTT1=
EXTT2=
EXTT3=
EXTT4=
EXTT5=
EXTT6=
EXTT7=
EXTT8=
EXTT9=
EXTT10=
EXTT11=
EXTT12=
EXTT13=
EXTT14=
EXTT15=
EXTT16=
EXTT17=
EXTT18=
EXTT19=
EXTT20=
EXTT21=
EXTT22=
EXTT23=
EXTT24=
EXTT25=
EXTT26=
EXTT27=
EXTT28=
EXTT29=
PLAYORDER=
